PathFileType	4	(X/Y/Z)	/Users/itak/Documents/Research/Walk-IL/dataset/trc/00093_00006.trc
DataRate	CameraRate	NumFrames	NumMarkers	Units	OrigDataRate	OrigDataStartFrame	OrigNumFrames
100.000000	100.000000	4	53	mm	100.000000	178	475
Frame#	Time	RPSI			LPSI			L3			STRN			T10			C7			CLAV			RBAK			LBAK			LSHO			LUPA			LAEL			LAOL			LWTS			LWPS			LFRA			LIFD			LHPS			LHTS			RSHO			RUPA			RAEL			RAOL			RWTS			RWPS			RFRA			RIFD			RHTS			RHPS			RBHD			LFHD			RFHD			LBHD			LHIP			RHIP			RASI			LASI			LKNE			LTHI			LANK			LTIP			LTOE			LMT1			LMT5			LHEE			RKNE			RTHI			RANK			RTIP			RTOE			RMT1			RMT5			RHEE			
		X1	Y1	Z1	X2	Y2	Z2	X3	Y3	Z3	X4	Y4	Z4	X5	Y5	Z5	X6	Y6	Z6	X7	Y7	Z7	X8	Y8	Z8	X9	Y9	Z9	X10	Y10	Z10	X11	Y11	Z11	X12	Y12	Z12	X13	Y13	Z13	X14	Y14	Z14	X15	Y15	Z15	X16	Y16	Z16	X17	Y17	Z17	X18	Y18	Z18	X19	Y19	Z19	X20	Y20	Z20	X21	Y21	Z21	X22	Y22	Z22	X23	Y23	Z23	X24	Y24	Z24	X25	Y25	Z25	X26	Y26	Z26	X27	Y27	Z27	X28	Y28	Z28	X29	Y29	Z29	X30	Y30	Z30	X31	Y31	Z31	X32	Y32	Z32	X33	Y33	Z33	X34	Y34	Z34	X35	Y35	Z35	X36	Y36	Z36	X37	Y37	Z37	X38	Y38	Z38	X39	Y39	Z39	X40	Y40	Z40	X41	Y41	Z41	X42	Y42	Z42	X43	Y43	Z43	X44	Y44	Z44	X45	Y45	Z45	X46	Y46	Z46	X47	Y47	Z47	X48	Y48	Z48	X49	Y49	Z49	X50	Y50	Z50	X51	Y51	Z51	X52	Y52	Z52	X53	Y53	Z53	

179	1.78	-1147.6220703125	1013.73779296875	120.4749221801758	-1153.335815429688	1003.420715332031	-50.18608093261719	-1145.582397460938	1070.9619140625	20.86600685119629	-886.9443969726562	1256.788330078125	54.88644027709961	-1152.80859375	1199.054931640625	5.094932556152344	-1088.04638671875	1464.068725585938	24.71199989318848	-913.7948608398438	1372.189331054688	57.51041793823242	-1165.3994140625	1323.3525390625	79.02236175537109	-1090.059204101562	1433.150390625	-82.87507629394531	-972.9978637695312	1441.45263671875	-129.6023254394531	-959.9447021484375	1319.179443359375	-214.7026519775391	-898.4849853515625	1108.581909179688	-230.8644714355469	-986.7522583007812	1080.890380859375	-181.7544708251953	-798.101806640625	914.4374389648438	-83.65008544921875	-821.1689453125	875.85693359375	-155.7128295898438	-853.5026245117188	1006.580627441406	-207.5279998779297	-753.5774536132812	750.5286865234375	-13.02490329742432	-774.4088134765625	813.088134765625	-119.8941497802734	-755.4825439453125	845.7997436523438	-58.54034042358398	-1060.16552734375	1413.872680664062	207.591552734375	-1086.370239257812	1341.569580078125	262.75390625	-1137.9560546875	1081.353637695312	269.6617126464844	-1096.541381835938	1058.230590820312	182.0892486572266	-1028.263061523438	814.02880859375	272.248046875	-1110.447875976562	812.2755126953125	302.8261413574219	-1136.271728515625	1003.84228515625	278.9353942871094	-1055.196166992188	629.1654663085938	251.2611999511719	-1020.434692382812	710.736083984375	279.9754028320312	-1091.301513671875	718.9490356445312	318.9259033203125	-1074.58837890625	1623.057739257812	83.35088348388672	-859.3563232421875	1679.564086914062	89.08216857910156	-941.325439453125	1660.324340820312	183.5191497802734	-993.8988647460938	1651.204711914062	-25.44572257995605	-1054.771850585938	934.5706176757812	-141.0964965820312	-1078.90087890625	948.578369140625	204.9294586181641	-955.5935668945312	965.1446533203125	179.8474426269531	-941.3868408203125	941.9035034179688	-86.83174133300781	-1088.884155273438	474.3351745605469	-90.11582946777344	-1084.593994140625	618.38525390625	-123.8662643432617	-1335.219604492188	65.3896484375	-117.3146438598633	-1222.685424804688	263.075927734375	-117.7707977294922	-1134.882202148438	46.01031494140625	-101.1569366455078	-1183.234619140625	47.55562591552734	-51.04515838623047	-1233.873168945312	41.52787780761719	-151.8372497558594	-1390.8115234375	77.83006286621094	-43.70853424072266	-878.5282592773438	525.1475830078125	186.8982086181641	-956.4945068359375	786.52490234375	218.9330596923828	-883.47900390625	41.01727294921875	141.6731262207031	-877.1290893554688	397.0674438476562	185.9524383544922	-673.1622314453125	68.07089233398438	172.1041564941406	-715.0127563476562	60.16274642944336	116.1943130493164	-775.2924194335938	56.16755294799805	194.8633422851562	-908.4671020507812	40.65724182128906	74.11174011230469	
180	1.79	-1140.696533203125	1014.366333007812	122.7441101074219	-1145.147094726562	1003.849609375	-47.83535766601562	-1137.96337890625	1071.422485351562	22.92362976074219	-879.8574829101562	1257.3193359375	59.00651931762695	-1145.373168945312	1199.275268554688	7.032698154449463	-1081.215942382812	1464.310180664062	27.8900032043457	-907.0296630859375	1372.673828125	61.68549346923828	-1158.642333984375	1323.301513671875	81.24708557128906	-1082.493774414062	1433.796264648438	-79.85943603515625	-965.0331420898438	1442.309326171875	-125.64111328125	-951.2984619140625	1320.076049804688	-210.6327667236328	-889.8177490234375	1109.630737304688	-226.5751800537109	-977.9368896484375	1081.730224609375	-177.3009796142578	-787.9003295898438	917.6826171875	-77.84282684326172	-810.80712890625	878.1664428710938	-149.4753112792969	-844.1893310546875	1008.137145996094	-202.5197143554688	-742.3353271484375	754.80908203125	-5.397452831268311	-763.62158203125	816.0578002929688	-112.9698944091797	-744.8246459960938	849.5657958984375	-51.98639678955078	-1054.460815429688	1413.626098632812	210.8199157714844	-1080.838623046875	1341.118041992188	265.6302185058594	-1131.716064453125	1080.743896484375	271.7420959472656	-1089.773803710938	1057.845092773438	184.3692932128906	-1022.174987792969	813.4768676757812	274.9463806152344	-1104.507446289062	811.8287353515625	305.0542297363281	-1130.006713867188	1003.385437011719	280.9562683105469	-1049.144775390625	628.6365966796875	253.9909820556641	-1014.475830078125	710.169677734375	282.8458251953125	-1085.6123046875	718.4995727539062	321.3026123046875	-1068.5546875	1623.144897460938	87.06896209716797	-853.4752807617188	1680.123291015625	94.24282073974609	-935.93896484375	1660.44921875	188.1468963623047	-987.260986328125	1651.696166992188	-21.13553047180176	-1046.311157226562	934.9663696289062	-138.3480377197266	-1072.014770507812	949.403076171875	207.6510009765625	-948.7571411132812	965.9806518554688	183.1462707519531	-933.1736450195312	942.351318359375	-83.42880249023438	-1082.337036132812	474.6706237792969	-88.11483001708984	-1076.967651367188	618.7177734375	-121.6792144775391	-1334.24853515625	68.13212585449219	-118.0675964355469	-1218.928955078125	264.8962707519531	-117.5745391845703	-1134.7490234375	45.97253799438477	-101.1606903076172	-1183.065673828125	47.69898223876953	-51.13639450073242	-1233.321533203125	41.85375213623047	-152.1492462158203	-1389.670654296875	81.88771057128906	-44.59764862060547	-871.7247924804688	525.7937622070312	188.9087524414062	-949.1513671875	787.2664184570312	221.3208312988281	-882.8953247070312	41.12701797485352	142.0686340332031	-871.60546875	397.1576538085938	187.7867736816406	-671.8513793945312	65.0458984375	172.53173828125	-714.2417602539062	58.51485824584961	116.6938018798828	-774.4028930664062	55.06900024414062	195.2196350097656	-908.0549926757812	41.31741714477539	74.54991149902344	
181	1.8	-1133.681396484375	1015.020629882812	125.1504287719727	-1136.833251953125	1004.429626464844	-45.34953689575195	-1130.295288085938	1071.988159179688	25.14759063720703	-872.7194213867188	1258.00927734375	63.3072395324707	-1137.805786132812	1199.575927734375	9.123197555541992	-1074.3623046875	1464.656494140625	31.09853172302246	-900.2501831054688	1373.307495117188	65.98039245605469	-1151.837036132812	1323.355834960938	83.53816223144531	-1074.85009765625	1434.503295898438	-76.77732849121094	-956.99658203125	1443.244506835938	-121.5885620117188	-942.6213989257812	1321.068603515625	-206.4883117675781	-881.4335327148438	1110.701049804688	-222.2686309814453	-969.3491821289062	1082.687622070312	-172.6925659179688	-777.9609375	920.8167114257812	-72.21811676025391	-800.8060302734375	880.4503784179688	-143.3936004638672	-835.204833984375	1009.680786132812	-197.5754241943359	-731.6845092773438	758.8468627929688	1.942033886909485	-753.3069458007812	818.887451171875	-106.2750854492188	-734.5364379882812	853.110595703125	-45.65388488769531	-1048.794921875	1413.5859375	214.1048583984375	-1075.373901367188	1340.896118164062	268.5728759765625	-1125.423828125	1080.336669921875	273.8681945800781	-1082.88037109375	1057.686889648438	186.72509765625	-1015.828674316406	813.1968994140625	277.7227172851562	-1098.323608398438	811.58544921875	307.3105163574219	-1123.653198242188	1003.108825683594	283.0101623535156	-1042.71435546875	628.3576049804688	256.7650756835938	-1008.212768554688	709.880126953125	285.7740478515625	-1079.615112304688	718.275634765625	323.7096557617188	-1062.475463867188	1623.406372070312	90.815673828125	-847.5545043945312	1680.776123046875	99.45288848876953	-930.514892578125	1660.709838867188	192.8194274902344	-980.5693969726562	1652.32470703125	-16.77478790283203	-1037.68310546875	935.55224609375	-135.4523315429688	-1065.126831054688	950.167724609375	210.4775543212891	-941.8623657226562	966.7855224609375	186.6333923339844	-924.8115844726562	942.9599609375	-79.84609222412109	-1075.003784179688	474.9444580078125	-86.07308959960938	-1068.771362304688	619.09423828125	-119.4419631958008	-1333.058959960938	71.18274688720703	-118.9641189575195	-1214.670532226562	266.8890991210938	-117.4671096801758	-1134.6611328125	45.94298934936523	-101.1750564575195	-1182.802856445312	47.90353012084961	-51.31289291381836	-1232.68798828125	42.2330436706543	-152.5131072998047	-1388.2451171875	86.44535827636719	-45.64668273925781	-865.4210815429688	526.1489868164062	190.8296203613281	-942.0609741210938	787.797607421875	223.7989196777344	-882.2800903320312	41.23003768920898	142.3931274414062	-866.4995727539062	397.1084899902344	189.4633941650391	-670.5367431640625	62.11377334594727	173.0335693359375	-713.4910888671875	57.00207901000977	117.2442474365234	-773.5015258789062	54.13473510742188	195.5354461669922	-907.611083984375	41.91466903686523	74.88287353515625	
182	1.81	-1126.563598632812	1015.702880859375	127.6982345581055	-1128.42529296875	1005.117797851562	-42.7364616394043	-1122.558349609375	1072.61328125	27.5689697265625	-865.540771484375	1258.847412109375	67.77260589599609	-1130.13427734375	1199.940551757812	11.39993953704834	-1067.503051757812	1465.09619140625	34.34320831298828	-893.4598388671875	1374.07763671875	70.38059234619141	-1144.994873046875	1323.503540039062	85.92044067382812	-1067.167846679688	1435.246337890625	-73.62137603759766	-948.9324951171875	1444.225219726562	-117.4592361450195	-933.9617919921875	1322.1162109375	-202.2793579101562	-873.3136596679688	1111.762939453125	-217.9631652832031	-960.9874267578125	1083.712036132812	-167.9820556640625	-768.28857421875	923.7974243164062	-66.78614807128906	-791.1760864257812	882.655029296875	-137.4760589599609	-826.5354614257812	1011.174011230469	-192.7065887451172	-721.5323486328125	762.6309814453125	8.987821578979492	-743.4425659179688	821.5454711914062	-99.81945037841797	-724.5951538085938	856.4183959960938	-39.56202697753906	-1043.1591796875	1413.737670898438	217.4544525146484	-1069.968627929688	1340.888305664062	271.5902404785156	-1119.096069335938	1080.1171875	276.0467224121094	-1075.863403320312	1057.738159179688	189.1757354736328	-1009.237915039062	813.1784057617188	280.5734252929688	-1091.903442382812	811.5220336914062	309.5820617675781	-1117.228759765625	1002.991821289062	285.1011047363281	-1035.892456054688	628.3187866210938	259.5552673339844	-1001.642517089844	709.8587036132812	288.7471923828125	-1073.313842773438	718.24755859375	326.1233520507812	-1056.36083984375	1623.839721679688	94.58523559570312	-841.6014404296875	1681.514526367188	104.6975784301758	-925.0623779296875	1661.10302734375	197.525390625	-973.837890625	1653.088134765625	-12.38118171691895	-1028.913940429688	936.2977905273438	-132.4175109863281	-1058.266723632812	950.8602905273438	213.384765625	-934.9214477539062	967.5368041992188	190.2846374511719	-916.3283081054688	943.709228515625	-76.0943603515625	-1066.778442382812	475.1071166992188	-84.02805328369141	-1059.968383789062	619.4865112304688	-117.1601257324219	-1331.612060546875	74.57563018798828	-119.9932708740234	-1209.8408203125	269.0540466308594	-117.4406433105469	-1134.656860351562	45.92712020874023	-101.2029495239258	-1182.456909179688	48.16244125366211	-51.55996704101562	-1231.959716796875	42.68648910522461	-152.9210052490234	-1386.46533203125	91.55648803710938	-46.82824325561523	-859.7054443359375	526.193115234375	192.6361389160156	-935.2869873046875	788.0807495117188	226.3878479003906	-881.63623046875	41.33960342407227	142.6509552001953	-861.8560791015625	396.9116516113281	190.9646301269531	-669.2119140625	59.23922729492188	173.5637969970703	-712.7252197265625	55.5933837890625	117.7710647583008	-772.5675659179688	53.32430648803711	195.7798767089844	-907.1435546875	42.44142532348633	75.10464477539062	
